P2
4 5
10
0 0 0 0
0 3 3 0
0 10 10 0
0 3 3 0
0 0 0 0
