P2
50 50
65535
61290 61853 62248 62375 62106 61514 60811 59931 58983 57707 55835 53924 52192 
50665 49243 47702 46197 44696 42906 40893 38910 37187 35545 33961 32379 30731 
28984 27356 25694 24065 22432 20855 19215 17536 15754 13861 11905 10134 8848 
7423 6345 5240 4332 3560 2753 2200 1671 1179 833 380 61631 62012 62218 62272 
62079 61608 60919 60035 59038 57796 56179 54293 52729 51239 49890 48464 47039 
45571 44073 42366 40210 38506 36924 35349 33815 32273 30782 29198 27607 26031 
24488 22956 21441 19955 18321 16793 15089 13228 11514 9868 8701 7402 6310 5410 
4631 3940 3301 2649 2217 1267 61796 62119 62248 62201 62028 61569 60895 60017 
59026 57789 56255 54514 52909 51464 50116 48813 47491 46010 44429 42755 40695 
39038 37511 35939 34450 32932 31423 29934 28448 26807 25253 23824 22335 20853 
19312 17867 16251 14563 12894 11125 9636 8461 7315 6301 5514 4744 4065 3483 
2935 1862 61910 62152 62300 62137 61923 61493 60831 59972 58939 57787 56268 
54617 53077 51690 50302 49018 47704 46278 44854 43278 41329 39581 38039 36549 
35043 33493 32023 30510 29052 27513 26033 24632 23154 21688 20248 18854 17293 
15773 14077 12289 10780 9386 8218 7216 6298 5581 4831 4202 3678 2498 62061 
62196 62201 62078 61850 61367 60713 59854 58821 57686 56248 54633 53203 51752 
50535 49336 47977 46641 45185 43579 41674 39989 38515 37009 35578 34057 32636 
31190 29716 28223 26800 25399 23930 22486 21133 19772 18271 16815 15319 13687 
11928 10460 9265 8126 7212 6407 5733 4982 4316 3197 62149 62215 62172 61982 
61700 61177 60531 59665 58692 57560 56279 54664 53319 51940 50712 49490 48259 
46899 45527 44078 42268 40563 39036 37532 36079 34695 33270 31883 30431 28944 
27502 26080 24708 23346 21992 20596 19246 17833 16370 14844 13249 11713 10294 
9155 8082 7225 6557 5866 5128 3966 62195 62136 62019 61756 61474 61005 60292 
59449 58492 57346 56094 54699 53349 52104 50903 49711 48457 47199 45914 44446 
42717 40860 39382 37969 36538 35192 33815 32426 31003 29630 28243 26843 25485 
24120 22800 21417 20121 18799 17362 15911 14490 12922 11480 10137 9059 8101 
7332 6677 5959 4627 62239 62059 61888 61609 61241 60729 60045 59150 58198 
57178 55943 54641 53427 52194 50984 49830 48676 47491 46151 44758 43211 41379 
39878 38469 37068 35684 34346 32991 31595 30270 28877 27605 26198 24833 23502 
22226 20932 19680 18299 16972 15572 14121 12592 11333 10050 9052 8155 7505 
6814 5286 62142 61729 61537 61244 60910 60305 59588 58688 57857 56884 55700 
54493 53373 52240 51114 49978 48803 47585 46421 45149 43664 41812 40262 38843 
37483 36168 34883 33537 32203 30817 29455 28189 26854 25569 24260 23017 21757 
20446 19138 17846 16594 15166 13865 12292 11142 10013 9031 8254 7585 6091 61941 
61402 61143 60785 60365 59822 59125 58331 57490 56486 55358 54306 53243 52171 
51107 50039 48984 47826 46632 45333 43937 42145 40576 39206 37900 36540 35294 
33967 32664 31372 30059 28789 27511 26243 24981 23675 22430 21188 19922 18730 
17391 16153 14882 13462 12105 10954 9939 9043 8289 6820 61566 61029 60628 
60307 59844 59202 58442 57731 56847 55935 54903 53910 53030 52063 51034 50001 
48934 47913 46707 45462 44141 42519 40971 39522 38183 36905 35601 34383 33112 
31829 30570 29304 28013 26766 25544 24332 23112 21939 20684 19419 18248 16983 
15758 14417 13162 11918 10803 9885 9051 7415 61128 60386 60020 59615 59122 
58446 57709 57033 56238 55279 54362 53553 52671 51794 50863 49915 48940 47934 
46820 45643 44311 42749 41182 39833 38573 37254 35977 34749 33484 32235 31012 
29811 28529 27408 26108 24916 23681 22543 21280 20157 18966 17807 16506 15279 
14127 12714 11747 10686 9806 8204 60581 59733 59367 58903 58329 57638 56948 
56258 55476 54594 53837 53012 52268 51442 50617 49755 48825 47876 46802 45671 
44430 42968 41310 39945 38687 37436 36213 35007 33793 32572 31422 30170 28943 
27832 26601 25393 24260 23099 21917 20743 19604 18442 17217 16117 14900 13649 
12493 11504 10524 8726 59835 59030 58588 58031 57510 56796 56105 55445 54645 
53850 53096 52426 51732 50963 50212 49436 48569 47656 46624 45583 44462 43066 
41468 40051 38790 37624 36414 35202 34055 32836 31675 30523 29337 28170 27003 
25907 24744 23606 22471 21321 20184 19048 17840 16730 15552 14488 13285 12252 
11190 9367 59052 58232 57730 57176 56550 55873 55290 54565 53787 53125 52424 
51844 51135 50475 49760 48987 48271 47368 46437 45400 44344 43062 41525 40168 
38890 37720 36579 35392 34276 33109 31967 30796 29676 28500 27375 26263 25120 
23960 22884 21776 20671 19557 18489 17387 16250 15085 13995 12876 11923 9882 
58246 57379 56819 56234 55638 54981 54374 53628 52938 52334 51729 51137 50559 
49898 49282 48623 47823 47076 46189 45205 44129 42967 41455 40134 38912 37736 
36634 35510 34398 33297 32175 31024 29921 28777 27680 26593 25519 24375 23317 
22217 21118 20067 18942 17865 16845 15744 14619 13494 12512 10462 57365 56382 
55810 55237 54722 54108 53442 52788 52114 51515 51045 50455 49894 49328 48678 
48055 47384 46584 45827 44930 43839 42857 41471 40157 38899 37727 36638 35553 
34484 33405 32303 31261 30103 29054 28021 26880 25870 24736 23645 22615 21551 
20469 19406 18392 17325 16218 15188 14132 13071 10977 56445 55342 54784 54281 
53749 53206 52495 51830 51244 50755 50244 49749 49188 48630 48086 47484 46847 
46049 45338 44538 43539 42514 41378 40113 38912 37765 36626 35565 34507 33445 
32375 31353 30225 29219 28180 27111 26131 25053 23980 22952 21906 20897 19804 
18753 17753 16748 15736 14627 13575 11527 55344 54232 53791 53307 52768 52197 
51557 50974 50449 50012 49531 49080 48564 48006 47441 46890 46217 45641 44889 
44126 43150 42384 41200 39879 38655 37702 36602 35560 34491 33488 32443 31372 
30391 29331 28333 27333 26295 25269 24253 23271 22261 21245 20233 19208 18242 
17252 16189 15210 14109 12036 54242 53195 52721 52269 51817 51204 50630 50195 
49746 49261 48814 48383 47886 47377 46838 46258 45674 45061 44382 43618 42846 
41953 40860 39720 38593 37512 36457 35523 34527 33475 32489 31497 30501 29474 
28483 27453 26470 25527 24553 23513 22539 21594 20616 19682 18690 17688 16692 
15744 14695 12595 53081 52157 51740 51323 50835 50291 49826 49351 48972 48544 
48118 47659 47210 46711 46222 45659 45112 44547 43896 43157 42496 41503 40682 
39593 38431 37411 36420 35391 34456 33483 32498 31566 30569 29521 28595 27706 
26698 25656 24735 23806 22856 21922 20955 20037 19133 18136 17186 16220 15218 
13212 51911 51136 50745 50305 49858 49443 49010 48613 48199 47814 47402 47044 
46558 46059 45574 45063 44548 44046 43326 42675 42075 41180 40400 39387 38310 
37290 36308 35360 34456 33458 32514 31548 30578 29683 28765 27822 26855 25934 
24961 24070 23097 22260 21328 20389 19517 18568 17719 16783 15790 13846 50875 
50182 49802 49355 48980 48603 48242 47871 47479 47125 46692 46318 45772 45409 
44963 44447 44005 43543 42850 42184 41656 40782 40098 39120 38101 37089 36188 
35297 34328 33432 32580 31595 30713 29807 28859 27946 27096 26142 25253 24378 
23464 22563 21702 20798 19931 19093 18268 17374 16453 14500 50010 49322 48922 
48510 48180 47860 47433 47080 46698 46384 45974 45587 45189 44768 44360 43921 
43481 42979 42379 41780 41171 40493 39737 38920 37948 36953 36098 35135 34282 
33475 32521 31595 30727 29930 28928 28089 27236 26383 25487 24638 23768 22918 
22015 21209 20353 19577 18774 17944 17137 15257 48957 48317 47962 47674 47318 
46995 46716 46375 46065 45679 45363 44988 44630 44214 43866 43408 43026 42480 
41941 41355 40768 40128 39353 38761 37824 36852 35973 35069 34258 33393 32556 
31670 30846 29946 29064 28248 27419 26624 25778 24945 24073 23253 22416 21605 
20785 20018 19298 18529 17801 15968 47919 47395 47149 46843 46550 46243 46005 
45698 45413 45122 44734 44400 44057 43677 43283 42894 42457 42008 41456 40910 
40386 39750 39114 38425 37586 36767 35810 34987 34241 33326 32479 31745 30884 
30022 29211 28363 27532 26788 25995 25153 24335 23579 22835 22079 21348 20571 
19819 19126 18391 16669 46923 46490 46265 46061 45788 45567 45282 45070 44774 
44515 44226 43823 43513 43209 42760 42349 41975 41530 41019 40506 39982 39359 
38803 38120 37386 36598 35727 34863 34147 33249 32494 31731 30855 30088 29301 
28501 27747 26964 26154 25357 24660 23877 23166 22456 21776 21059 20373 19657 
18943 17458 45952 45671 45496 45284 45058 44868 44642 44423 44184 43981 43587 
43294 43009 42643 42275 41927 41518 41015 40634 40046 39601 38988 38465 37779 
37054 36432 35539 34815 33956 33224 32429 31627 30955 30100 29310 28618 27862 
27127 26388 25608 24891 24210 23467 22742 22160 21509 20847 20194 19509 18150 
45031 44773 44662 44567 44436 44214 44092 43821 43613 43345 43033 42759 42512 
42164 41799 41451 41020 40573 40146 39709 39181 38639 38073 37468 36828 36105 
35418 34569 33841 33090 32300 31556 30836 30102 29361 28608 27879 27259 26536 
25839 25140 24441 23755 23157 22468 21886 21327 20721 20083 18882 44038 43983 
43869 43831 43759 43636 43394 43260 43126 42832 42597 42268 42003 41709 41365 
41009 40573 40202 39756 39255 38758 38237 37746 37105 36520 35860 35175 34421 
33629 32953 32168 31434 30778 29984 29369 28617 27941 27227 26577 25969 25312 
24664 24074 23447 22894 22292 21762 21225 20683 19580 42954 43094 43092 43057 
43056 42975 42893 42797 42609 42389 42165 41952 41656 41341 40940 40633 40193 
39776 39423 38861 38414 37901 37281 36723 36199 35507 34881 34179 33427 32691 
32000 31279 30538 29898 29259 28498 27897 27230 26616 25990 25388 24825 24243 
23710 23132 22660 22103 21682 21155 20161 41576 41830 41946 42049 42087 42090 
42072 42063 41919 41834 41637 41399 41258 40962 40665 40358 39967 39523 39031 
38493 37983 37501 36976 36354 35750 35144 34534 33821 33198 32417 31763 31008 
30418 29730 29104 28431 27760 27153 26616 25959 25427 24865 24400 23867 23398 
22861 22492 21995 21614 20727 40448 40731 40811 40868 40902 40956 41025 41038 
40938 40943 40895 40821 40637 40393 40146 39867 39609 39119 38738 38323 37753 
37160 36583 35982 35304 34795 34087 33491 32813 32103 31446 30768 30115 29395 
28832 28224 27621 26985 26468 25884 25408 24847 24455 23938 23500 23038 22631 
22321 22071 21281 39554 39847 39892 40012 40081 40197 40184 40141 40115 40078 
40004 39958 39760 39615 39383 39165 38843 38585 38204 37733 37268 36783 36241 
35658 35060 34329 33667 32984 32381 31694 30981 30368 29701 29085 28417 27888 
27338 26724 26252 25676 25298 24775 24363 23938 23544 23194 22959 22696 22469 
21730 38754 39028 39152 39310 39353 39391 39467 39449 39458 39449 39376 39219 
39125 38911 38689 38440 38123 37807 37403 37019 36560 36128 35623 35133 34473 
33945 33289 32583 31901 31191 30529 29830 29244 28581 28004 27437 26829 26393 
25871 25397 24966 24558 24239 23928 23635 23427 23243 22947 22709 22194 37998 
38363 38423 38608 38717 38776 38750 38783 38781 38756 38606 38473 38397 38174 
37953 37701 37389 37068 36699 36260 35798 35372 34806 34261 33768 33133 32568 
31877 31313 30636 29920 29287 28515 27974 27346 26867 26286 25792 25370 25123 
24740 24500 24212 23932 23722 23499 23310 23119 22972 22602 37302 37642 37861 
37922 38022 38066 38003 38036 37981 37872 37812 37730 37535 37293 37074 36784 
36465 36139 35789 35409 34918 34435 33994 33371 32793 32186 31591 30896 30275 
29684 29012 28546 27821 27218 26731 26294 25897 25439 25132 24817 24579 24340 
24116 23986 23909 23770 23669 23546 23430 23197 36668 36957 37163 37205 37199 
37231 37212 37183 37028 36985 36895 36721 36531 36296 36038 35770 35390 35001 
34692 34177 33830 33285 32832 32191 31683 30964 30303 29670 29056 28576 28055 
27531 27023 26623 26217 25849 25399 25078 24839 24608 24391 24250 24110 24038 
23974 23846 23774 23721 23658 23509 35928 36183 36335 36337 36330 36338 36321 
36183 36109 35954 35810 35653 35357 35100 34870 34446 34123 33718 33318 32853 
32380 31824 31319 30690 30235 29700 29076 28535 27987 27529 27018 26643 26281 
25873 25663 25373 25174 25008 24759 24543 24320 24140 24050 23914 23957 23900 
23896 23913 23923 23839 35138 35316 35417 35433 35403 35360 35255 35155 35004 
34825 34718 34359 34153 33788 33508 33076 32628 32139 31640 31198 30734 30313 
29756 29294 28857 28366 27956 27487 27126 26797 26254 25908 25640 25416 25231 
24983 24786 24578 24411 24239 24183 24076 24048 23976 23938 23967 23931 23953 
23961 23969 34211 34351 34442 34365 34332 34199 34154 33958 33815 33570 33343 
33016 32733 32283 31936 31344 30988 30632 30115 29627 29240 28896 28416 28088 
27711 27272 27029 26628 26250 25873 25615 25356 25055 24834 24700 24522 24289 
24146 24061 24054 23949 23927 23895 23913 23913 23949 23936 23929 23941 23904 
33173 33249 33270 33246 33112 33000 32891 32617 32367 32069 31706 31372 30986 
30690 30250 29815 29435 29150 28756 28443 28021 27754 27413 26959 26683 26372 
26034 25605 25382 25132 24895 24589 24410 24214 24111 23933 23820 23822 23720 
23700 23678 23662 23713 23700 23646 23686 23775 23811 23794 23928 31961 32015 
31922 31840 31767 31537 31365 31005 30770 30499 30244 29835 29486 29197 28871 
28538 28351 27901 27644 27260 27044 26631 26260 25950 25745 25381 24966 24790 
24497 24331 24089 23902 23743 23604 23602 23546 23464 23410 23373 23369 23355 
23376 23349 23355 23420 23503 23472 23497 23619 23828 30511 30567 30357 30262 
30123 30004 29901 29618 29348 29158 28855 28591 28340 28001 27759 27539 27120 
26915 26491 26259 25983 25620 25276 24988 24773 24414 24222 23983 23822 23591 
23427 23285 23123 23075 23031 23135 23105 23108 23106 23071 23031 23100 23096 
23123 23163 23175 23282 23348 23452 23581 29081 28998 28971 28867 28775 28699 
28498 28348 28082 27992 27696 27537 27280 26927 26768 26353 26142 25870 25457 
25207 24949 24566 24383 24188 23934 23664 23441 23203 23000 22831 22659 22582 
22473 22394 22455 22619 22628 22700 22691 22716 22723 22730 22869 22837 22970 
22996 23111 23130 23212 23301 27694 27792 27759 27649 27626 27610 27363 27240 
27174 26938 26704 26560 26249 25977 25788 25396 25172 24909 24600 24374 24149 
23834 23585 23326 23086 22785 22660 22449 22291 22153 22062 21898 21868 21845 
21905 22163 22247 22314 22393 22384 22384 22392 22457 22559 22642 22686 22740 
22816 22956 23079 26576 26708 26732 26736 26697 26511 26418 26321 26197 25918 
25785 25613 25291 25031 24877 24530 24339 24097 23829 23555 23313 22993 22753 
22579 22375 22104 21960 21829 21656 21554 21449 21404 21333 21402 21488 21698 
21910 21970 22056 22093 22143 22173 22213 22282 22391 22452 22433 22512 22559 
22746 25738 25873 25801 25791 25749 25559 25548 25451 25348 25052 24917 24711 
24497 24271 24113 23839 23632 23324 23045 22804 22590 22277 22085 21939 21732 
21556 21358 21297 21165 21081 21003 20919 20895 20932 21098 21265 21514 21694 
21774 21796 21820 21881 22024 22078 22180 22124 22222 22240 22345 22455 24764 
24868 24882 24854 24781 24633 24608 24533 24454 24247 24093 23912 23784 23524 
23260 23060 22784 22612 22341 22108 21926 21668 21516 21313 21197 21019 20948 
20844 20784 20672 20629 20586 20624 20650 20783 20988 21315 21424 21604 21647 
21621 21702 21779 21889 21860 21952 21988 21977 22106 22225 22643 22761 22810 
22799 22805 22734 22697 22610 22501 22313 22225 22129 21982 21800 21709 21553 
21369 21202 21043 20921 20795 20675 20636 20508 20416 20389 20312 20282 20192 
20173 20092 20124 20111 20239 20345 20520 20999 21234 21373 21453 21602 21603 
21688 21678 21700 21739 21746 21768 21773 21872 
