P2
50 100
65535
478 407 382 355 408 452 533 636 766 1042 1543 2127 2647 3141 3623 4105 4599 
5170 5947 6935 7917 8860 9851 10939 12089 13225 14409 15794 17170 18592 19876 
21323 23243 27496 30475 32632 34385 35853 37164 38315 39339 40202 40948 41544 
42173 42989 43817 44427 45214 46812 636 582 574 580 579 616 666 733 871 1065 
1471 2040 2677 3259 3826 4415 5160 5909 6693 7515 8514 9453 10541 11713 13041 
14326 15560 16782 17988 19207 20438 21889 23736 27679 30573 32618 34287 35765 
37008 38114 39139 40000 40783 41277 41885 42621 43359 44027 44805 46393 665 
694 684 685 713 758 811 915 1040 1232 1601 2195 2858 3491 4175 4822 5525 6216 
6980 7783 8741 9810 10966 12190 13477 14731 15975 17152 18363 19566 20753 
22201 24044 27792 30581 32648 34269 35693 36957 38059 39066 39881 40644 41198 
41762 42384 43125 43890 44559 46211 747 758 788 830 852 921 995 1088 1276 1459 
1798 2388 3145 3848 4493 5157 5817 6518 7306 8094 9080 10315 11531 12678 13900 
15106 16352 17541 18662 19856 21112 22508 24318 27960 30675 32637 34320 35696 
36908 38021 38972 39827 40543 41096 41599 42284 43043 43613 44383 45964 773 
851 889 952 988 1094 1224 1373 1549 1773 2106 2700 3432 4155 4788 5426 6114 
6835 7629 8518 9612 10873 12039 13209 14371 15574 16754 17921 19070 20185 
21439 22822 24623 28080 30717 32632 34230 35660 36848 37916 38921 39733 40447 
40942 41446 42039 42766 43536 44093 45722 801 936 1007 1098 1195 1307 1451 
1619 1834 2099 2408 2961 3651 4363 5075 5767 6462 7253 8097 9144 10217 11355 
12602 13740 14902 16043 17179 18346 19432 20619 21800 23151 24979 28216 30852 
32690 34239 35609 36839 37873 38773 39600 40302 40822 41270 41871 42553 43224 
43973 45467 776 1006 1118 1208 1364 1517 1683 1871 2111 2397 2721 3173 3871 
4649 5396 6121 6877 7740 8722 9825 10877 11978 13173 14341 15424 16573 17669 
18802 19909 21001 22177 23469 25291 28376 30886 32686 34260 35587 36715 37788 
38692 39442 40122 40646 41153 41684 42324 42948 43611 45117 748 1065 1216 1364 
1517 1694 1907 2138 2388 2675 2998 3423 4108 4968 5745 6558 7447 8410 9474 
10533 11543 12639 13772 14899 16039 17126 18192 19298 20339 21430 22674 23809 
25658 28556 30951 32703 34205 35546 36702 37642 38579 39312 39939 40460 40940 
41463 42073 42683 43314 44920 734 1134 1315 1506 1686 1909 2129 2364 2623 2944 
3296 3740 4452 5261 6217 7217 8166 9187 10225 11229 12240 13324 14384 15558 
16667 17711 18789 19802 20813 21953 23004 24237 26035 28702 31076 32764 34193 
35469 36567 37539 38383 39123 39775 40315 40734 41219 41799 42385 43042 44515 
720 1185 1420 1634 1863 2102 2346 2638 2889 3239 3659 4093 4817 5741 6841 7920 
8957 9945 10977 11964 13005 14052 15068 16166 17270 18343 19381 20371 21415 
22410 23453 24587 26497 28891 31131 32771 34152 35436 36476 37388 38187 38968 
39591 40113 40545 40973 41478 42061 42686 44117 671 1255 1521 1754 2032 2278 
2590 2891 3184 3593 4010 4564 5310 6392 7588 8645 9669 10714 11713 12715 13763 
14757 15797 16832 17927 19014 19952 20951 21942 22959 23967 25034 26909 29127 
31244 32798 34134 35309 36348 37247 37994 38716 39374 39893 40277 40683 41188 
41724 42330 43783 649 1324 1615 1910 2191 2468 2774 3110 3524 3946 4469 5186 
5969 7068 8298 9397 10466 11519 12483 13532 14524 15522 16542 17550 18550 
19611 20638 21581 22539 23500 24440 25471 27333 29304 31295 32762 34022 35156 
36177 37003 37791 38523 39106 39634 40031 40402 40820 41346 41972 43339 628 
1368 1717 2024 2340 2647 2998 3421 3865 4373 5097 5856 6734 7803 8984 10144 
11259 12296 13317 14331 15339 16306 17296 18309 19241 20276 21300 22243 23100 
24005 24949 25897 27770 29515 31351 32765 33948 35051 35963 36760 37531 38209 
38851 39356 39720 40099 40476 40981 41580 42860 580 1455 1805 2148 2492 2862 
3273 3712 4272 4984 5739 6601 7511 8533 9725 10931 12011 13115 14140 15139 
16121 17101 18077 19063 19985 21003 21875 22879 23758 24696 25531 26412 28159 
29755 31347 32754 33871 34842 35721 36513 37228 37967 38505 39007 39389 39755 
40080 40595 41109 42423 587 1515 1924 2266 2649 3062 3552 4076 4765 5525 6414 
7302 8212 9268 10464 11693 12821 13909 14915 15947 16962 17945 18933 19845 
20800 21717 22655 23594 24363 25274 26091 26961 28571 29942 31363 32648 33741 
34632 35458 36239 36948 37621 38134 38640 39043 39339 39750 40162 40646 41951 
572 1599 2017 2425 2840 3290 3812 4471 5256 6118 7071 7948 8901 9976 11217 
12440 13604 14688 15774 16795 17758 18785 19689 20677 21601 22480 23409 24229 
25112 25881 26599 27536 28925 30108 31271 32540 33549 34394 35213 35929 36585 
37217 37771 38279 38685 38998 39309 39695 40199 41452 579 1671 2120 2548 3012 
3557 4157 4979 5860 6762 7673 8596 9581 10722 11938 13236 14398 15490 16611 
17572 18633 19677 20524 21550 22382 23339 24117 25034 25754 26517 27130 28073 
29292 30324 31306 32308 33350 34121 34918 35579 36224 36820 37354 37837 38231 
38581 38891 39202 39702 40910 574 1771 2242 2695 3217 3806 4598 5469 6386 7311 
8295 9262 10260 11401 12672 13986 15151 16353 17457 18437 19482 20462 21439 
22377 23232 24140 24953 25731 26483 27096 27713 28585 29591 30401 31233 32120 
33027 33854 34516 35217 35848 36380 36922 37385 37824 38130 38388 38744 39198 
40364 601 1844 2351 2837 3414 4105 4948 5918 6912 7838 8853 9866 10922 12115 
13425 14710 15987 17170 18221 19344 20399 21357 22348 23224 24168 24984 25750 
26464 27080 27634 28365 29052 29929 30612 31263 31903 32710 33480 34175 34811 
35337 35932 36391 36877 37305 37602 37934 38245 38661 39848 656 1949 2495 3031 
3647 4419 5385 6365 7370 8380 9434 10481 11600 12794 14139 15524 16761 17875 
19079 20214 21216 22243 23186 24157 24971 25848 26534 27147 27770 28434 29010 
29539 30221 30732 31233 31773 32395 32983 33689 34298 34888 35410 35942 36367 
36765 37117 37409 37705 38153 39290 694 2073 2624 3210 3855 4774 5787 6804 
7807 8901 9954 11063 12171 13470 14830 16184 17487 18723 19941 21034 22088 
23159 24077 25066 25831 26593 27270 27962 28583 29132 29619 29986 30509 30969 
31328 31655 32115 32562 33170 33748 34374 34942 35409 35870 36248 36583 36880 
37185 37589 38802 756 2188 2773 3361 4095 5051 6173 7176 8254 9365 10486 11599 
12814 14153 15534 16937 18258 19483 20677 21833 23010 23991 25023 25863 26691 
27595 28314 28924 29435 29886 30269 30560 30777 31082 31375 31576 31854 32281 
32637 33166 33697 34333 34821 35291 35694 36082 36384 36620 37020 38186 874 
2337 2932 3555 4354 5415 6486 7579 8676 9791 10946 12146 13438 14857 16365 
17686 18992 20215 21476 22692 23817 24897 25820 26908 27868 28712 29457 30031 
30444 30708 30900 31034 31098 31200 31338 31536 31740 32000 32282 32678 33101 
33631 34128 34739 35193 35584 35846 36146 36511 37668 987 2508 3087 3754 4692 
5723 6855 7930 9092 10260 11440 12684 14055 15472 16936 18362 19731 20997 
22299 23496 24625 25749 26996 28186 29260 29887 30458 30895 31234 31466 31568 
31493 31403 31310 31281 31354 31480 31706 31990 32230 32638 33003 33519 34063 
34613 35068 35332 35670 36011 37214 1157 2647 3252 3955 4924 6006 7131 8303 
9500 10662 11892 13212 14668 16199 17649 19067 20405 21749 23018 24278 25474 
26908 28346 29342 30159 30875 31379 31692 31912 32084 32132 31972 31697 31506 
31379 31315 31297 31369 31599 31922 32260 32615 33027 33474 34052 34546 34905 
35203 35577 36780 1405 2765 3429 4151 5148 6326 7472 8624 9810 11061 12338 
13791 15286 16782 18285 19679 21041 22420 23782 24970 26548 28190 29306 30337 
31080 31691 32164 32478 32687 32632 32573 32430 32085 31772 31563 31403 31312 
31264 31379 31511 31907 32251 32611 33041 33549 34024 34499 34909 35244 36440 
1629 2951 3591 4352 5382 6570 7745 8975 10227 11499 12855 14336 15833 17348 
18803 20232 21667 23029 24393 25886 27723 29066 30251 31152 31911 32498 32870 
33185 33291 33213 33116 32942 32465 32050 31770 31606 31414 31315 31323 31422 
31615 32036 32392 32877 33239 33676 34098 34572 35049 36281 1864 3127 3791 
4567 5675 6868 8085 9296 10570 11909 13382 14852 16504 17951 19417 20829 22295 
23722 25033 26782 28590 29944 30985 31977 32678 33227 33612 33818 33871 33824 
33572 33351 32898 32377 32050 31825 31573 31459 31386 31454 31567 31822 32377 
32693 33126 33532 33908 34364 34860 36146 2063 3326 3972 4762 5919 7169 8373 
9622 10939 12387 13878 15452 16955 18384 19870 21358 22803 24226 25752 27756 
29332 30631 31764 32675 33394 33911 34275 34426 34429 34317 34041 33765 33374 
32752 32395 32049 31801 31658 31585 31580 31673 31875 32374 32790 33181 33530 
33911 34357 34838 36086 2271 3497 4166 5019 6209 7428 8674 9968 11361 12838 
14383 15912 17387 18854 20286 21809 23264 24740 26449 28391 29978 31288 32385 
33354 34067 34565 34925 34990 35022 34829 34612 34274 33848 33178 32772 32417 
32131 31946 31870 31857 31951 32143 32596 32982 33352 33703 34071 34530 35034 
36253 2470 3691 4365 5314 6489 7688 8984 10321 11800 13304 14844 16309 17798 
19237 20704 22204 23726 25137 27014 29006 30500 31822 33012 33887 34612 35151 
35491 35528 35483 35337 35092 34692 34322 33799 33234 32859 32570 32369 32281 
32242 32339 32520 33035 33322 33704 34082 34448 34850 35351 36558 2695 3876 
4562 5533 6704 7961 9321 10758 12272 13805 15260 16699 18138 19622 21102 22610 
24093 25532 27569 29455 31020 32332 33531 34439 35164 35617 35939 36058 36037 
35863 35537 35278 34878 34424 33783 33366 33087 32881 32768 32754 32859 33258 
33557 33899 34201 34574 34975 35364 35833 36993 2900 4069 4816 5787 6989 8296 
9758 11208 12711 14214 15620 17043 18509 19999 21491 22977 24500 25918 28029 
29853 31417 32792 33944 34887 35658 36137 36445 36576 36556 36359 36123 35767 
35369 35016 34587 34070 33752 33499 33415 33507 33737 33935 34244 34498 34899 
35341 35687 35993 36333 37454 3095 4290 5019 6006 7303 8691 10139 11662 13103 
14531 15919 17368 18840 20313 21806 23315 24820 26287 28409 30270 31781 33191 
34385 35325 36090 36583 36891 37013 37051 36863 36632 36325 36003 35575 35225 
34851 34669 34499 34422 34405 34524 34748 35009 35343 35771 36179 36412 36649 
37000 38084 3296 4505 5242 6287 7663 9088 10526 12035 13432 14838 16220 17640 
19095 20594 22081 23579 25111 26547 28695 30593 32126 33588 34777 35742 36429 
36928 37322 37524 37505 37503 37246 36952 36608 36266 35952 35601 35375 35258 
35206 35315 35392 35664 35992 36367 36728 37035 37126 37392 37698 38712 3481 
4718 5471 6613 8022 9479 10973 12349 13758 15102 16477 17937 19370 20831 22303 
23800 25303 26753 28900 30837 32460 33927 35059 36101 36775 37338 37742 37968 
38099 37978 37877 37631 37345 37069 36680 36440 36273 36166 36169 36307 36429 
36814 37060 37410 37678 37880 37959 38149 38477 39423 3692 4897 5753 6960 8395 
9892 11281 12669 13996 15364 16731 18153 19588 21046 22483 24015 25508 26957 
29087 31088 32700 34199 35357 36392 37137 37711 38157 38437 38599 38590 38500 
38309 38170 37951 37653 37393 37225 37251 37306 37428 37637 37872 38175 38334 
38567 38714 38849 38954 39261 40172 3881 5150 6090 7345 8759 10225 11568 12916 
14268 15576 16931 18331 19771 21192 22691 24186 25689 27116 29258 31282 32944 
34453 35670 36705 37493 38122 38606 38932 39125 39202 39186 39118 38998 38816 
38599 38411 38327 38327 38444 38573 38773 38908 39063 39349 39480 39580 39678 
39797 40084 40914 4075 5389 6399 7729 9175 10512 11834 13159 14454 15804 17156 
18516 19909 21351 22821 24351 25880 27329 29427 31466 33178 34676 35988 37017 
37866 38517 39004 39365 39616 39763 39830 39874 39787 39719 39570 39438 39411 
39439 39453 39590 39706 39919 40091 40254 40375 40444 40539 40604 40907 41669 
4282 5629 6743 8065 9501 10777 12103 13402 14659 15971 17336 18693 20039 21519 
23015 24538 26021 27553 29604 31649 33420 34979 36313 37333 38216 38905 39472 
39872 40189 40344 40460 40525 40509 40506 40456 40372 40294 40352 40439 40558 
40709 40877 41001 41156 41321 41301 41388 41436 41647 42371 4424 5912 7081 
8395 9726 11006 12282 13570 14854 16150 17492 18847 20200 21658 23136 24689 
26216 27737 29787 31938 33661 35260 36626 37793 38608 39405 39920 40419 40708 
40916 41067 41212 41278 41317 41341 41220 41235 41292 41354 41483 41648 41790 
41962 42065 42189 42159 42147 42252 42443 43123 4606 6172 7364 8675 9976 11241 
12495 13729 15010 16310 17630 18975 20389 21771 23288 24829 26398 27909 30043 
32192 33925 35578 36970 38139 39109 39824 40482 40945 41306 41583 41749 41934 
42022 42074 42097 42076 42119 42213 42294 42397 42573 42692 42854 42900 43005 
42967 42956 42997 43151 43801 4762 6388 7612 8938 10206 11472 12685 13919 
15177 16458 17773 19139 20511 21917 23441 25007 26596 28063 30340 32418 34281 
36023 37438 38546 39527 40331 40940 41517 41893 42217 42406 42631 42759 42894 
42947 42947 43010 43108 43206 43336 43433 43574 43654 43786 43801 43774 43683 
43738 43866 44468 4949 6648 7806 9194 10399 11635 12855 14079 15322 16600 
17930 19283 20645 22048 23581 25179 26777 28302 30741 32730 34745 36457 37831 
38969 40014 40832 41508 42065 42534 42864 43118 43347 43550 43693 43771 43777 
43872 43944 44021 44189 44280 44394 44490 44561 44605 44531 44443 44438 44557 
45090 5100 6863 8084 9370 10627 11806 12996 14201 15472 16702 18039 19400 
20767 22236 23752 25347 26977 28617 31054 33164 35137 36931 38316 39496 40527 
41372 42095 42662 43179 43578 43856 44099 44324 44462 44595 44624 44687 44748 
44913 44977 45113 45208 45246 45330 45325 45263 45139 45099 45223 45668 5253 
7046 8302 9547 10785 11967 13172 14355 15570 16861 18138 19480 20863 22352 
23897 25508 27116 28978 31471 33633 35706 37365 38739 39952 40996 41913 42664 
43294 43816 44235 44521 44807 45048 45240 45380 45437 45493 45579 45696 45781 
45892 45945 46041 46097 46086 45960 45836 45732 45808 46233 5403 7264 8512 
9716 10938 12079 13297 14481 15698 16943 18225 19598 20989 22455 23983 25661 
27276 29451 31977 34195 36173 37823 39233 40441 41534 42464 43243 43954 44446 
44913 45231 45551 45768 46000 46164 46242 46277 46393 46444 46553 46625 46695 
46751 46755 46781 46672 46487 46380 46407 46765 5549 7397 8676 9848 11098 
12248 13410 14625 15839 17107 18338 19670 21074 22541 24107 25766 27480 30188 
32520 34831 36659 38359 39721 40971 42106 43027 43818 44545 45105 45559 45929 
46233 46501 46727 46922 46996 47054 47135 47199 47319 47325 47407 47416 47404 
47437 47289 47153 46980 46967 47224 5702 7575 8847 10038 11218 12377 13552 
14709 15961 17223 18514 19847 21258 22716 24277 25994 27964 30778 33190 35430 
37171 38825 40255 41518 42664 43589 44437 45137 45717 46239 46632 46942 47213 
47481 47647 47748 47817 47855 47971 48000 48025 48092 48116 48076 48025 47942 
47744 47557 47498 47722 5856 7718 8956 10176 11364 12519 13673 14841 16022 
17280 18587 19926 21380 22863 24473 26156 28729 31343 33895 35936 37705 39267 
40743 42016 43120 44169 45015 45751 46355 46855 47295 47624 47916 48141 48329 
48500 48532 48576 48669 48719 48757 48747 48752 48754 48651 48507 48325 48111 
48031 48119 5999 7906 9085 10290 11505 12631 13786 14943 16212 17451 18710 
20019 21487 22991 24657 26563 29429 32107 34570 36466 38236 39785 41212 42501 
43651 44675 45563 46357 46976 47501 47985 48274 48647 48865 49049 49196 49211 
49294 49335 49391 49425 49409 49361 49337 49262 49148 48898 48654 48486 48566 
6140 8059 9235 10398 11611 12756 13912 15035 16276 17544 18822 20269 21682 
23214 24861 27357 30144 32907 35122 37025 38687 40247 41671 42995 44159 45179 
46110 46889 47593 48078 48587 48945 49279 49510 49746 49860 49922 49961 49972 
50071 50044 50063 50053 49961 49829 49702 49466 49196 48989 48951 6296 8183 
9357 10539 11725 12830 14028 15205 16447 17694 18960 20357 21789 23437 25250 
28177 30980 33581 35666 37468 39188 40701 42151 43424 44630 45685 46611 47449 
48157 48733 49217 49634 49929 50198 50379 50561 50553 50616 50661 50653 50629 
50652 50617 50505 50426 50317 50030 49724 49440 49408 6444 8329 9452 10566 
11804 12955 14126 15286 16536 17854 19168 20583 22076 23663 26164 29002 31744 
34024 36086 37942 39636 41116 42556 43855 45069 46139 47107 48003 48707 49320 
49811 50237 50510 50828 51076 51200 51224 51264 51305 51281 51257 51228 51153 
51067 50949 50799 50627 50291 49988 49716 6606 8432 9561 10685 11935 13060 
14219 15474 16729 18037 19346 20796 22358 24163 27079 29909 32390 34535 36529 
38338 40046 41544 42926 44242 45466 46602 47544 48459 49237 49890 50411 50848 
51175 51414 51703 51840 51917 51860 51855 51847 51851 51842 51741 51596 51482 
51301 51042 50733 50453 50163 6775 8572 9681 10805 11956 13195 14412 15538 
16825 18142 19517 20984 22564 25253 27936 30634 32939 34956 36929 38694 40405 
41901 43282 44604 45837 46983 47975 48924 49713 50367 50959 51383 51762 52042 
52261 52405 52537 52494 52474 52436 52375 52297 52326 52200 52045 51841 51588 
51267 50922 50446 6935 8703 9804 10920 12091 13284 14460 15739 17045 18368 
19780 21284 23191 26069 28762 31213 33380 35377 37213 38967 40658 42194 43574 
44887 46122 47314 48390 49288 50153 50840 51463 51964 52279 52598 52855 52972 
53063 53143 53087 52988 52935 52833 52740 52619 52473 52333 52171 51895 51495 
50841 7110 8831 9924 11039 12169 13351 14657 15889 17126 18491 19946 21525 
24230 26829 29436 31672 33769 35681 37505 39234 40872 42463 43866 45201 46436 
47639 48753 49712 50579 51308 51922 52456 52843 53093 53422 53513 53616 53666 
53683 53587 53496 53414 53280 53111 52948 52742 52545 52299 51913 51147 7278 
9000 10028 11165 12321 13455 14701 16006 17338 18718 20207 22241 25000 27602 
29954 32114 34077 35969 37734 39458 41047 42677 44098 45433 46701 47865 49053 
50057 50965 51732 52405 52869 53365 53597 53867 54074 54176 54158 54108 54056 
53990 53948 53804 53658 53485 53313 53098 52835 52474 51575 7463 9148 10207 
11298 12373 13579 14843 16167 17496 18897 20478 23186 25728 28307 30422 32386 
34367 36226 37940 39636 41207 42809 44284 45626 46911 48134 49252 50370 51263 
52086 52870 53331 53787 54142 54344 54547 54718 54739 54637 54522 54422 54326 
54209 54101 53935 53728 53485 53210 52905 51931 7631 9288 10305 11437 12576 
13653 14925 16246 17647 19079 21220 23832 26400 28698 30741 32657 34551 36374 
38091 39703 41339 42851 44349 45774 47087 48298 49467 50562 51532 52468 53103 
53778 54179 54560 54845 54981 55144 55191 55167 55028 54913 54825 54683 54557 
54357 54133 53928 53661 53366 52460 7806 9535 10529 11575 12676 13874 15102 
16355 17823 19397 22013 24472 26946 29027 30985 32865 34689 36476 38174 39804 
41376 42942 44441 45911 47220 48450 49597 50775 51836 52668 53434 54022 54650 
54923 55251 55381 55562 55615 55590 55460 55384 55277 55171 54982 54799 54591 
54333 54078 53788 52904 7991 9698 10669 11743 12792 13968 15144 16472 17826 
19995 22538 25036 27313 29284 31128 32978 34768 36532 38216 39874 41444 42941 
44471 45908 47297 48540 49766 50956 51933 52924 53644 54301 54890 55344 55636 
55780 55966 56000 56000 55917 55774 55684 55533 55375 55163 54971 54760 54518 
54247 53434 8183 9896 10826 11882 13018 14162 15303 16588 18055 20658 23065 
25500 27561 29474 31314 33054 34861 36537 38250 39835 41400 42917 44424 45923 
47321 48629 49772 50960 52106 53041 53851 54537 55139 55596 55990 56175 56301 
56387 56440 56372 56213 56085 55957 55774 55579 55395 55222 54957 54672 53933 
8408 10186 10999 12013 13123 14253 15436 16712 18465 21104 23517 25782 27755 
29566 31389 33163 34852 36531 38161 39810 41374 42892 44393 45881 47308 48640 
49940 51077 52156 53199 54014 54722 55318 55838 56272 56534 56667 56724 56746 
56738 56622 56471 56332 56153 55968 55765 55530 55312 55091 54416 8676 10380 
11254 12234 13246 14333 15533 16823 19107 21409 23826 25974 27866 29687 31445 
33138 34768 36435 38127 39737 41312 42816 44346 45753 47252 48536 49814 51044 
52214 53218 54110 54815 55453 56000 56525 56780 56962 57061 57104 57071 56987 
56822 56668 56500 56316 56141 55953 55758 55554 54811 8907 10608 11462 12433 
13494 14551 15740 17072 19547 21743 24051 26062 27922 29699 31401 33087 34733 
36376 37992 39611 41150 42718 44165 45667 47174 48587 49828 51000 52168 53260 
54169 54933 55584 56174 56638 57064 57223 57307 57352 57416 57381 57226 57051 
56888 56721 56504 56292 56106 55851 55269 9176 10820 11670 12602 13626 14686 
15818 17458 19873 22097 24273 26170 27954 29672 31340 33005 34640 36244 37843 
39470 41046 42558 44055 45516 47021 48388 49715 50961 52106 53184 54236 54945 
55662 56223 56794 57209 57474 57632 57631 57659 57638 57526 57351 57172 57006 
56835 56651 56468 56258 55655 9451 11106 11898 12800 13800 14814 15976 17869 
20091 22340 24384 26169 27933 29657 31372 32930 34529 36112 37704 39278 40891 
42413 43883 45336 46739 48228 49529 50807 52004 53103 54131 55002 55681 56320 
56839 57348 57655 57816 57883 57938 57901 57843 57670 57499 57353 57196 57011 
56839 56604 56064 9837 11376 12250 13017 14017 14976 16105 18359 20374 22596 
24489 26203 27872 29604 31225 32797 34394 35916 37531 39094 40698 42221 43694 
45181 46654 48066 49417 50647 51872 53000 54012 54937 55696 56295 56912 57368 
57768 57983 58074 58087 58139 58117 58018 57831 57627 57461 57284 57128 56931 
56453 10217 11630 12497 13321 14207 15198 16375 18584 20660 22774 24532 26236 
27832 29560 31110 32665 34209 35812 37305 38891 40457 42023 43476 45006 46436 
47830 49262 50480 51628 52784 53888 54876 55654 56332 56867 57434 57817 58102 
58283 58272 58325 58300 58238 58093 57887 57735 57578 57430 57268 56760 10599 
11991 12779 13555 14466 15387 16725 18860 20897 22936 24623 26199 27816 29404 
30997 32561 34070 35584 37136 38702 40201 41732 43258 44726 46142 47562 49007 
50283 51464 52564 53650 54665 55511 56206 56869 57381 57821 58180 58322 58409 
58490 58496 58457 58375 58169 58021 57840 57727 57533 57093 10927 12302 13054 
13824 14711 15601 17066 19225 21205 23082 24679 26237 27801 29328 30898 32397 
33909 35437 36900 38423 39972 41446 43021 44443 45873 47241 48637 49989 51221 
52322 53385 54432 55423 56131 56770 57283 57777 58170 58385 58531 58534 58588 
58583 58547 58418 58208 58047 57936 57765 57424 11316 12715 13392 14122 14940 
15812 17521 19486 21476 23248 24823 26264 27766 29204 30812 32246 33731 35188 
36717 38163 39703 41198 42714 44182 45539 46943 48302 49696 50917 52049 53145 
54150 55072 55998 56626 57188 57700 58120 58383 58564 58660 58687 58680 58697 
58603 58428 58279 58178 58011 57703 11765 13114 13827 14525 15270 16084 18068 
19783 21696 23358 24890 26304 27748 29203 30635 32085 33603 35021 36479 37954 
39456 40893 42405 43840 45255 46675 47948 49303 50558 51759 52868 53846 54808 
55680 56488 57072 57601 58025 58367 58528 58625 58711 58787 58792 58746 58651 
58474 58343 58241 57870 12122 13516 14192 14927 15669 16508 18441 20166 22049 
23555 24981 26341 27766 29106 30505 31965 33395 34792 36284 37724 39154 40631 
42108 43538 44945 46291 47620 48912 50220 51371 52457 53535 54446 55344 56138 
56849 57384 57916 58237 58443 58634 58704 58780 58809 58795 58774 58649 58489 
58378 58075 12611 13884 14564 15246 15955 17081 18849 20567 22296 23798 25126 
26429 27764 29124 30459 31843 33222 34645 36093 37423 38886 40362 41773 43189 
44607 45982 47313 48522 49764 50992 52138 53132 54114 54997 55832 56562 57148 
57640 58053 58343 58520 58696 58778 58798 58808 58811 58755 58629 58483 58237 
13109 14331 14933 15580 16326 17629 19460 21051 22635 23983 25299 26537 27816 
29081 30394 31738 33101 34475 35860 37262 38613 40058 41423 42843 44266 45617 
46904 48134 49376 50527 51704 52747 53724 54611 55410 56169 56834 57339 57802 
58146 58397 58574 58701 58757 58828 58822 58784 58740 58597 58352 13524 14760 
15385 16026 16712 18403 19901 21569 23029 24257 25442 26680 27864 29133 30326 
31624 32960 34276 35645 36988 38342 39789 41122 42495 43891 45247 46539 47727 
48903 50112 51283 52318 53292 54210 55029 55755 56477 57034 57500 57936 58224 
58481 58608 58692 58761 58761 58807 58786 58751 58424 14012 15167 15802 16400 
17337 19037 20484 22055 23368 24593 25674 26819 27965 29125 30289 31542 32828 
34105 35459 36768 38119 39462 40772 42128 43540 44863 46134 47365 48521 49669 
50728 51867 52823 53758 54635 55382 56035 56658 57216 57660 57996 58241 58410 
58611 58664 58709 58703 58720 58707 58466 14583 15642 16219 16837 18028 19691 
21046 22597 23786 24874 25956 27014 28067 29139 30295 31495 32690 33981 35202 
36524 37803 39194 40455 41752 43142 44436 45725 46943 48069 49224 50266 51330 
52368 53304 54132 54945 55655 56251 56801 57326 57679 58019 58245 58402 58533 
58639 58661 58689 58656 58547 15082 16148 16731 17385 19028 20294 21793 23095 
24136 25231 26238 27202 28222 29229 30315 31363 32603 33843 35037 36322 37568 
38885 40129 41391 42771 44032 45299 46516 47625 48719 49778 50830 51805 52817 
53675 54474 55217 55880 56419 56945 57350 57730 58014 58224 58359 58471 58550 
58626 58636 58584 15728 16665 17230 18230 19720 21011 22379 23550 24577 25499 
26488 27433 28396 29361 30334 31368 32504 33684 34841 36056 37300 38568 39788 
41021 42380 43618 44860 46079 47160 48270 49293 50326 51317 52252 53182 54003 
54739 55396 56011 56515 57032 57378 57756 57984 58170 58329 58397 58455 58486 
58515 16296 17202 17944 19321 20454 21772 23016 24032 24975 25842 26781 27690 
28566 29487 30390 31395 32444 33533 34658 35850 37039 38251 39460 40681 42002 
43189 44381 45565 46689 47785 48830 49823 50798 51737 52625 53518 54227 54940 
55561 56111 56602 57061 57416 57765 57952 58089 58291 58319 58380 58381 17055 
17810 18893 20148 21284 22480 23631 24489 25369 26235 27064 27940 28715 29625 
30484 31426 32359 33427 34480 35650 36774 37938 39155 40306 41602 42714 43872 
45086 46161 47268 48318 49341 50305 51165 52102 52950 53728 54490 55118 55743 
56211 56658 57113 57433 57702 57941 58078 58176 58267 58310 17833 18847 20034 
21060 22179 23229 24105 25038 25758 26579 27351 28107 28936 29708 30587 31436 
32329 33265 34343 35406 36524 37656 38810 39958 41207 42290 43446 44545 45645 
46760 47794 48791 49808 50643 51573 52377 53233 53987 54664 55248 55821 56297 
56714 57055 57410 57663 57885 58006 58111 58220 18705 20266 21046 21976 23000 
23932 24642 25417 26157 26897 27642 28366 29163 29852 30660 31463 32283 33177 
34179 35162 36282 37312 38461 39591 40770 41861 42947 44061 45111 46225 47260 
48249 49249 50154 51049 51889 52676 53469 54172 54783 55388 55930 56312 56753 
57100 57423 57627 57794 57971 58110 19697 21521 22158 22955 23804 24535 25252 
25867 26583 27224 27979 28605 29288 30009 30700 31503 32284 33124 33969 34947 
35966 37033 38088 39198 40368 41377 42509 43543 44628 45696 46706 47700 48706 
49583 50533 51364 52157 52898 53663 54329 54948 55466 55948 56399 56812 57107 
57394 57578 57771 58010 21218 22617 23349 23941 24522 25150 25680 26316 26975 
27567 28184 28797 29467 30121 30804 31517 32296 33022 33857 34731 35703 36684 
37724 38858 39890 40938 41978 43050 44065 45163 46160 47159 48127 49082 49981 
50835 51645 52379 53177 53892 54503 55042 55586 56027 56423 56799 57136 57401 
57601 57891 22371 23873 24497 24975 25302 25776 26236 26781 27339 27937 28499 
29054 29640 30265 30935 31566 32289 32965 33746 34544 35476 36371 37376 38401 
39470 40493 41543 42534 43604 44587 45630 46604 47561 48515 49466 50303 51126 
51904 52663 53391 54075 54641 55181 55670 56095 56527 56842 57162 57334 57662 
23198 25235 25498 25781 26074 26349 26775 27247 27735 28186 28747 29242 29822 
30374 30966 31580 32228 32893 33610 34408 35204 36075 37027 38061 38975 40024 
41058 42050 43096 44089 45064 46090 47040 47990 48899 49771 50616 51410 52190 
52901 53584 54208 54763 55313 55737 56183 56554 56882 57080 57421 24030 25952 
26522 26669 26842 27062 27286 27672 28065 28496 28989 29480 29951 30486 31046 
31628 32243 32844 33467 34210 34977 35799 36703 37653 38543 39503 40543 41567 
42586 43585 44580 45539 46501 47431 48378 49253 50116 50907 51718 52420 53146 
53811 54374 54931 55403 55835 56285 56648 56817 57125 24860 26466 27032 27597 
27611 27696 27849 28112 28446 28825 29228 29688 30106 30608 31096 31649 32193 
32754 33379 34035 34744 35526 36422 37276 38127 39069 40035 41030 42087 43078 
44088 45026 45983 46969 47826 48736 49625 50403 51216 51997 52683 53369 53980 
54574 55063 55514 55974 56351 56568 56873 25582 26884 27504 28038 28360 28349 
28425 28493 28752 29072 29474 29849 30309 30710 31204 31660 32169 32751 33240 
33854 34513 35294 36088 36942 37732 38675 39554 40598 41537 42582 43583 44530 
45514 46444 47380 48266 49106 49946 50764 51492 52260 53013 53628 54202 54698 
55193 55669 56095 56339 56584 26141 27314 27770 28317 28840 29045 28965 29036 
29093 29355 29641 30030 30435 30790 31263 31740 32185 32688 33143 33681 34331 
35046 35824 36569 37371 38246 39129 40099 41073 42074 43092 44086 45054 45985 
46893 47820 48671 49507 50299 51096 51834 52531 53259 53866 54378 54889 55370 
55796 56069 56337 26641 27617 28097 28588 29093 29595 29489 29467 29466 29646 
29865 30157 30482 30906 31268 31716 32187 32589 33044 33545 34137 34807 35529 
36272 37030 37878 38726 39689 40565 41619 42591 43632 44582 45520 46491 47381 
48225 49098 49852 50692 51421 52186 52897 53482 54081 54567 55095 55541 55826 
56069 26999 27951 28351 28854 29280 29797 30102 29929 29873 29851 30081 30323 
30627 30942 31327 31706 32155 32538 32914 33411 33923 34619 35293 35998 36742 
37549 38360 39249 40161 41106 42120 43153 44175 45125 46054 46947 47858 48700 
49518 50313 51049 51794 52541 53188 53765 54271 54762 55259 55600 55866 27354 
28224 28593 29024 29509 29942 30457 30397 30243 30142 30257 30475 30701 31030 
31349 31723 32088 32472 32822 33253 33766 34393 35083 35716 36483 37249 38076 
38880 39767 40684 41649 42679 43728 44748 45666 46556 47485 48313 49140 49961 
50719 51451 52168 52902 53496 54013 54516 54982 55383 55635 27729 28474 28852 
29242 29656 30121 30574 30855 30628 30534 30427 30618 30844 31090 31373 31694 
32053 32402 32710 33131 33606 34176 34843 35456 36219 36955 37751 38567 39391 
40261 41197 42176 43260 44288 45284 46216 47079 47960 48789 49570 50362 51107 
51834 52574 53193 53730 54249 54746 55154 55432 28315 28983 29333 29649 30042 
30414 30856 31307 31583 31218 31147 30954 31025 31227 31457 31731 31992 32314 
32560 32862 33242 33728 34378 34941 35644 36369 37151 37895 38608 39430 40208 
41179 42178 43253 44322 45252 46239 47170 48015 48843 49626 50372 51103 51834 
52574 53137 53663 54128 54581 54982 
