P2
100 50
65535
59139 58655 58425 58110 57743 57343 56888 56404 56012 55491 54910 54328 53691 
53041 52340 51736 51126 50525 49834 49224 48568 47891 47203 46493 45716 44802 
43797 42730 41750 40839 39962 39049 38256 37565 36895 36265 35716 35152 34685 
34266 33843 33450 33077 32701 32325 31958 31650 31323 30988 30640 30313 30038 
29672 29376 29043 28736 28428 28098 27788 27562 27199 26983 26669 26492 26284 
26141 25983 25873 25845 25826 25882 25892 25964 26091 26256 26505 26727 26849 
26895 26809 26716 26723 26730 26740 26706 26701 26729 26717 26740 26785 26815 
26735 26836 26861 26901 26952 26978 27008 27130 27237 57571 57084 56861 56579 
56219 55820 55413 55054 54607 54151 53626 53020 52443 51769 51228 50615 50017 
49452 48853 48280 47656 46986 46335 45647 44924 44064 43128 42111 41211 40318 
39472 38601 37748 37027 36357 35680 35064 34531 33984 33495 33029 32634 32268 
31869 31513 31183 30783 30474 30162 29843 29555 29248 28927 28683 28389 28073 
27807 27533 27274 27000 26786 26526 26345 26092 25942 25807 25668 25575 25535 
25497 25522 25578 25707 25887 26203 26471 26651 26864 26957 27025 27086 27029 
26950 26995 26992 26983 27011 27008 26953 26973 26997 26966 26969 26937 26965 
27005 27015 26991 26961 27098 56798 56359 56147 55806 55551 55197 54827 54427 
54023 53519 53017 52455 51847 51270 50692 50145 49530 48953 48404 47861 47221 
46627 45974 45286 44545 43739 42836 41837 40970 40096 39205 38402 37542 36789 
36094 35398 34768 34217 33677 33198 32696 32271 31880 31505 31113 30775 30413 
30075 29797 29470 29171 28820 28611 28356 28050 27752 27514 27301 27033 26777 
26592 26315 26151 25970 25768 25592 25522 25407 25369 25354 25362 25438 25593 
25791 26026 26229 26459 26605 26786 26918 27040 27070 27049 26950 27021 27071 
27060 27071 27074 27085 27059 27034 27045 27042 27039 26962 26991 26995 27019 
27069 55979 55640 55394 55070 54793 54539 54205 53783 53390 52918 52372 51852 
51290 50732 50154 49584 49117 48527 47952 47405 46880 46213 45614 44925 44198 
43437 42474 41562 40678 39859 39015 38215 37366 36535 35858 35209 34527 33930 
33383 32832 32387 31933 31555 31172 30757 30392 30063 29744 29412 29120 28796 
28523 28241 28005 27724 27436 27246 27036 26750 26560 26319 26128 25934 25753 
25608 25403 25312 25239 25146 25165 25217 25298 25376 25565 25751 25902 26124 
26274 26470 26574 26741 26804 26875 26945 26976 27024 27065 27089 27095 27118 
27126 27077 27078 27024 27028 27038 27056 27023 26997 26986 55101 54804 54589 
54312 54047 53769 53475 53132 52735 52311 51800 51272 50690 50171 49639 49118 
48624 48086 47563 47003 46437 45859 45230 44558 43876 43070 42189 41254 40446 
39585 38839 37976 37171 36380 35612 34952 34272 33620 33074 32544 32026 31598 
31151 30752 30358 30022 29714 29361 29041 28715 28439 28189 27924 27627 27353 
27157 26894 26708 26454 26251 26073 25875 25671 25543 25372 25179 25064 25010 
24955 24879 24834 24854 24995 25171 25292 25482 25647 25854 26016 26188 26360 
26503 26642 26728 26800 26891 26929 26900 26983 27025 27033 27040 27062 27044 
27048 27022 26978 26937 26962 26946 53972 53875 53683 53540 53310 53059 52799 
52465 52081 51672 51176 50653 50179 49652 49197 48651 48125 47629 47110 46627 
46026 45422 44877 44204 43463 42756 41822 40992 40168 39359 38561 37773 36958 
36136 35412 34717 34007 33388 32808 32208 31692 31254 30792 30351 29991 29655 
29275 28901 28639 28325 28061 27801 27505 27276 27006 26786 26599 26324 26126 
25935 25747 25541 25383 25223 25064 24815 24577 24371 24227 24066 24011 24084 
24168 24285 24452 24683 24894 25143 25433 25641 25882 26081 26299 26501 26670 
26805 26870 26953 26981 26973 26875 26905 26912 26880 26823 26765 26727 26725 
26702 26664 53019 52743 52591 52453 52437 52275 51977 51729 51393 50984 50533 
50034 49576 49074 48622 48146 47666 47179 46688 46175 45663 45045 44464 43835 
43117 42384 41522 40712 39887 39122 38294 37548 36756 35980 35122 34456 33740 
33105 32490 31899 31358 30907 30370 29990 29635 29214 28851 28498 28211 27904 
27627 27336 27073 26832 26622 26343 26142 25937 25733 25473 25181 24886 24561 
24230 23881 23533 23250 23100 23003 23048 23154 23273 23443 23642 23843 24037 
24335 24599 24872 25082 25351 25556 25890 26145 26396 26607 26774 26951 27026 
27093 27130 27119 27084 27041 26922 26891 26847 26802 26737 26583 52230 51892 
51717 51526 51421 51262 51018 50890 50628 50250 49861 49431 48983 48488 48094 
47670 47195 46733 46242 45751 45189 44691 44087 43462 42776 42071 41188 40412 
39630 38837 38063 37289 36537 35739 34954 34203 33516 32826 32231 31612 31052 
30504 30025 29620 29153 28772 28432 28058 27726 27414 27090 26721 26366 26047 
25624 25294 24942 24442 24056 23741 23507 23243 22977 22776 22637 22483 22382 
22299 22320 22376 22478 22607 22794 22998 23231 23513 23746 23996 24189 24470 
24790 25095 25351 25626 26003 26333 26597 26838 27003 27149 27276 27325 27337 
27358 27356 27276 27206 27086 26991 26768 51554 51224 51008 50802 50615 50499 
50209 49980 49745 49360 49086 48720 48366 47960 47531 47137 46711 46303 45833 
45328 44806 44241 43721 43077 42438 41687 40902 40157 39350 38611 37814 37051 
36310 35544 34786 33990 33265 32581 31915 31304 30698 30174 29642 29175 28712 
28149 27561 26984 26334 25686 25184 24787 24392 24088 23803 23507 23294 22998 
22741 22572 22367 22250 22109 21976 21880 21805 21724 21740 21723 21764 21891 
22074 22239 22464 22680 22892 23093 23342 23595 23930 24214 24498 24804 25138 
25440 25808 26191 26560 26787 27024 27185 27318 27436 27510 27539 27524 27543 
27526 27497 27308 50949 50646 50407 50207 50026 49890 49580 49364 49040 48675 
48305 47940 47596 47322 46972 46644 46228 45789 45377 44940 44435 43910 43308 
42714 42139 41392 40590 39894 39144 38353 37551 36836 36080 35314 34588 33796 
33052 32319 31645 31013 30374 29709 28897 27991 26954 26257 25692 25167 24707 
24272 23908 23619 23298 23010 22724 22477 22254 22095 21953 21766 21636 21525 
21429 21326 21283 21278 21265 21224 21197 21248 21380 21509 21672 21864 22041 
22209 22453 22688 23009 23296 23541 23874 24221 24553 24907 25275 25581 26026 
26446 26768 27007 27193 27348 27458 27580 27640 27683 27694 27692 27621 50470 
50121 49922 49730 49585 49361 49076 48853 48535 48140 47768 47347 47007 46674 
46284 46022 45705 45367 44921 44523 44077 43537 42953 42390 41742 41055 40328 
39625 38901 38163 37414 36627 35890 35134 34361 33608 32818 32083 31339 30559 
29482 28131 27210 26427 25701 25146 24655 24127 23750 23386 23086 22754 22401 
22227 21979 21782 21618 21437 21290 21144 21029 20938 20900 20894 20880 20830 
20824 20807 20771 20765 20853 20943 21114 21277 21400 21608 21817 22107 22342 
22571 22951 23289 23557 23932 24288 24648 25021 25408 25883 26300 26709 26935 
27159 27355 27469 27576 27644 27714 27762 27743 50046 49705 49513 49327 49136 
48918 48648 48415 48075 47744 47362 46930 46551 46168 45793 45522 45118 44832 
44456 44084 43682 43214 42685 42095 41503 40795 40098 39420 38687 37942 37190 
36426 35737 34945 34163 33412 32655 31832 30680 29118 28003 27113 26287 25610 
24945 24414 23883 23477 23123 22736 22425 22134 21843 21611 21432 21227 21016 
20894 20761 20691 20647 20564 20504 20450 20405 20393 20375 20380 20351 20340 
20328 20382 20524 20683 20773 20976 21193 21480 21668 21950 22289 22594 22899 
23306 23632 24009 24395 24767 25175 25592 26106 26527 26828 27098 27284 27428 
27544 27648 27701 27790 49740 49382 49155 48958 48740 48541 48291 48051 47738 
47393 46990 46541 46194 45799 45433 45097 44716 44418 44011 43644 43277 42849 
42356 41836 41237 40596 39881 39236 38466 37783 37074 36298 35527 34761 33993 
33224 32362 30967 29361 28233 27258 26414 25697 24993 24418 23902 23362 22936 
22572 22234 21892 21602 21360 21125 20931 20783 20650 20538 20430 20296 20224 
20162 20090 20019 19989 19959 19965 19927 19898 19843 19853 19872 19916 20051 
20137 20376 20599 20786 21012 21320 21606 21858 22252 22593 22940 23361 23684 
24137 24502 24923 25329 25830 26332 26664 26951 27172 27322 27463 27568 27719 
49429 49092 48881 48619 48419 48196 48001 47739 47416 47093 46709 46268 45899 
45466 45109 44762 44414 44077 43721 43315 42913 42531 42046 41562 41012 40402 
39759 39067 38408 37627 36885 36122 35388 34641 33847 32975 31551 29896 28703 
27707 26791 26000 25265 24634 23976 23485 22986 22505 22139 21822 21470 21169 
20977 20735 20606 20458 20328 20138 20012 19925 19827 19775 19675 19622 19568 
19551 19521 19481 19423 19372 19330 19345 19346 19437 19548 19782 19912 20115 
20420 20678 20929 21238 21588 21848 22272 22626 23035 23419 23790 24228 24617 
25057 25444 26015 26451 26763 27001 27181 27334 27562 49200 48880 48688 48447 
48256 48053 47790 47502 47198 46878 46434 46067 45636 45253 44852 44541 44181 
43791 43454 43122 42701 42261 41827 41347 40844 40279 39639 38976 38276 37597 
36806 36065 35317 34535 33698 32388 30607 29350 28288 27349 26410 25737 24986 
24378 23732 23217 22726 22178 21823 21509 21145 20890 20621 20443 20260 20109 
19943 19775 19649 19554 19462 19349 19258 19169 19140 19079 19060 19013 18962 
18920 18827 18743 18736 18849 18942 19141 19306 19447 19790 20001 20260 20559 
20882 21218 21597 21879 22349 22677 23108 23495 23894 24303 24680 25111 25563 
26097 26459 26722 26987 27323 49060 48652 48513 48288 48047 47798 47584 47333 
47056 46707 46330 45874 45445 45033 44707 44318 43992 43642 43281 42916 42537 
42119 41694 41201 40724 40218 39586 38940 38250 37508 36827 36033 35302 34457 
33466 31578 30172 29022 27976 27023 26291 25461 24812 24135 23596 22938 22478 
22026 21571 21230 20955 20599 20326 20088 19924 19748 19580 19439 19294 19167 
19045 18930 18813 18711 18659 18590 18547 18506 18473 18432 18346 18231 18129 
18228 18335 18486 18625 18835 19126 19338 19613 19888 20183 20520 20872 21228 
21608 21972 22385 22726 23176 23540 23964 24318 24737 25099 25541 26021 26396 
26945 48937 48577 48404 48245 47967 47728 47536 47223 46943 46616 46236 45824 
45365 44948 44528 44188 43809 43485 43144 42776 42439 42026 41605 41184 40707 
40185 39602 38955 38290 37577 36773 36058 35279 34386 33106 31210 29842 28766 
27838 26926 26123 25384 24680 24050 23411 22913 22343 21882 21445 21009 20695 
20380 20047 19773 19576 19418 19240 19066 18940 18795 18649 18550 18409 18281 
18185 18138 18104 18027 17964 17929 17839 17730 17625 17621 17744 17819 17944 
18196 18417 18633 18945 19237 19531 19855 20166 20534 20896 21268 21669 22042 
22445 22750 23213 23581 23958 24295 24676 25039 25422 26345 48880 48539 48311 
48159 47951 47638 47380 47178 46868 46569 46193 45779 45338 44904 44460 44068 
43728 43377 43031 42676 42371 41990 41606 41212 40679 40167 39597 38982 38343 
37672 36986 36213 35385 34544 32849 31061 29808 28740 27746 26868 26095 25339 
24683 23978 23391 22784 22309 21786 21341 20930 20462 20144 19847 19603 19294 
19112 18956 18751 18580 18427 18278 18160 18011 17906 17780 17674 17623 17568 
17474 17418 17337 17309 17105 17085 17148 17244 17331 17555 17751 17964 18292 
18534 18843 19158 19510 19855 20189 20592 20944 21354 21700 22095 22456 22817 
23197 23521 23899 24207 24528 25347 48826 48501 48366 48131 47986 47661 47445 
47184 46891 46542 46196 45800 45324 44872 44464 44094 43695 43349 42998 42679 
42316 41991 41686 41233 40766 40255 39658 39064 38437 37781 37103 36394 35615 
34716 32755 31078 29837 28773 27823 26904 26138 25372 24613 24016 23338 22847 
22216 21764 21267 20835 20398 20045 19644 19368 19108 18854 18626 18456 18283 
18107 17933 17795 17651 17509 17386 17274 17149 17096 17030 16939 16876 16799 
16708 16545 16555 16667 16677 16951 17113 17300 17642 17836 18183 18478 18817 
19162 19547 19866 20239 20644 20985 21394 21722 22099 22432 22722 23141 23433 
23747 24484 48878 48553 48363 48199 48025 47779 47445 47157 46913 46607 46261 
45860 45408 44919 44497 44075 43721 43389 43010 42700 42380 42149 41743 41314 
40862 40316 39767 39191 38548 37919 37241 36533 35787 34877 32896 31378 30066 
28926 27979 27073 26223 25522 24750 24076 23472 22871 22302 21765 21298 20820 
20333 20010 19565 19225 18929 18633 18426 18152 17987 17813 17617 17445 17291 
17152 17015 16868 16760 16642 16557 16469 16390 16356 16250 16134 16061 16084 
16174 16305 16512 16689 16964 17161 17532 17788 18177 18492 18864 19221 19596 
19928 20302 20671 20995 21412 21699 22046 22368 22637 22996 23664 48954 48614 
48473 48311 48085 47899 47610 47323 47071 46701 46346 46011 45556 45079 44608 
44156 43789 43415 43126 42836 42613 42239 41827 41390 40917 40442 39870 39295 
38656 38015 37312 36643 35973 35115 33194 31659 30407 29345 28348 27376 26488 
25734 24985 24214 23626 22933 22430 21860 21377 20827 20391 19984 19579 19215 
18862 18547 18271 17996 17774 17526 17331 17167 16982 16837 16674 16470 16331 
16232 16090 16053 15957 15921 15854 15753 15634 15592 15594 15725 15889 16045 
16294 16527 16867 17110 17497 17781 18200 18494 18935 19252 19630 19968 20344 
20683 20980 21343 21624 21891 22245 22959 49109 48741 48601 48457 48279 48039 
47796 47474 47126 46866 46502 46136 45758 45261 44757 44326 43963 43573 43224 
42997 42752 42411 41988 41500 41026 40535 39990 39408 38875 38238 37575 36890 
36191 35453 33689 31972 30797 29740 28800 27901 27009 26104 25355 24525 23864 
23222 22596 22046 21526 21050 20527 20064 19615 19213 18885 18501 18156 17883 
17617 17354 17108 16916 16725 16511 16363 16180 16017 15848 15779 15604 15565 
15473 15449 15359 15334 15156 15093 15203 15312 15470 15707 15926 16189 16467 
16843 17126 17538 17822 18249 18530 18957 19276 19660 19980 20296 20626 20922 
21176 21534 22197 49289 48939 48782 48632 48446 48223 48016 47720 47385 47088 
46707 46378 45961 45496 44993 44526 44109 43796 43556 43265 42969 42576 42166 
41719 41250 40722 40165 39637 39066 38453 37854 37204 36480 35732 34347 32444 
31247 30163 29196 28353 27512 26766 25965 25010 24313 23600 22904 22306 21724 
21222 20702 20241 19801 19343 18942 18534 18236 17876 17514 17241 16981 16689 
16496 16329 16103 15885 15716 15553 15386 15297 15144 15101 15045 14969 14928 
14869 14739 14737 14840 14941 15144 15319 15617 15857 16194 16479 16860 17145 
17569 17849 18267 18565 18987 19281 19629 19913 20185 20477 20795 21451 49495 
49158 49021 48874 48677 48489 48235 47997 47658 47295 46995 46608 46183 45777 
45278 44785 44445 44129 43909 43614 43278 42850 42413 41998 41512 41026 40479 
39924 39361 38736 38100 37491 36822 36133 35075 33057 31696 30631 29677 28827 
28049 27298 26488 25746 25037 24118 23431 22714 22094 21516 20992 20524 19966 
19572 19124 18680 18312 17899 17567 17188 16892 16628 16336 16095 15924 15680 
15447 15263 15116 14963 14865 14738 14695 14618 14573 14557 14473 14328 14378 
14450 14626 14817 15046 15280 15627 15856 16250 16557 16891 17231 17607 17940 
18298 18600 18947 19218 19544 19798 20067 20739 49775 49471 49336 49141 48988 
48803 48566 48355 47986 47652 47197 46880 46553 46128 45692 45255 44911 44721 
44351 43946 43566 43166 42775 42315 41784 41323 40834 40265 39687 39112 38508 
37863 37231 36555 35796 33958 32414 31223 30245 29381 28545 27821 27035 26335 
25640 24872 24200 23370 22634 21985 21364 20879 20313 19864 19386 18941 18466 
18103 17704 17269 16926 16567 16308 16007 15747 15477 15297 15058 14861 14722 
14566 14441 14379 14316 14240 14241 14215 14129 14047 14037 14178 14299 14510 
14769 15035 15320 15625 15955 16306 16605 16960 17272 17631 17955 18272 18523 
18859 19097 19359 19992 50128 49818 49700 49515 49337 49140 48946 48655 48403 
47973 47585 47303 46938 46581 46188 45878 45558 45116 44725 44371 43928 43514 
43064 42651 42165 41691 41139 40617 40091 39471 38888 38303 37687 37049 36289 
35226 33204 31967 30939 30021 29177 28407 27720 26915 26252 25581 24895 24161 
23465 22629 21921 21295 20780 20275 19737 19280 18793 18360 17873 17526 17072 
16738 16311 15993 15681 15401 15168 14919 14680 14491 14336 14196 14082 14064 
13994 13942 13946 13896 13839 13715 13777 13886 14074 14227 14546 14775 15081 
15384 15674 16001 16327 16652 16991 17292 17593 17872 18216 18417 18709 19256 
50481 50213 50083 49910 49755 49528 49344 49073 48795 48379 48045 47712 47424 
47146 46871 46518 46026 45605 45151 44737 44351 43903 43477 42970 42537 42044 
41559 41022 40499 39938 39368 38773 38133 37547 36896 36165 34468 32881 31731 
30789 29931 29134 28323 27607 26969 26234 25560 24934 24228 23566 22855 21988 
21311 20762 20218 19709 19167 18738 18210 17822 17349 16930 16526 16146 15732 
15426 15105 14847 14572 14373 14181 14000 13909 13798 13734 13694 13670 13700 
13658 13590 13508 13523 13684 13822 14050 14269 14519 14822 15089 15417 15720 
16037 16336 16684 16959 17227 17540 17745 18006 18616 50937 50703 50589 50393 
50232 50011 49808 49562 49263 48941 48550 48321 47998 47896 47526 47133 46594 
46133 45689 45184 44729 44282 43884 43431 42963 42455 41894 41407 40901 40368 
39794 39254 38645 38036 37429 36788 35902 34010 32681 31602 30680 29836 29069 
28377 27628 26975 26307 25610 24975 24334 23613 22969 22276 21448 20842 20264 
19710 19154 18695 18195 17712 17283 16835 16372 15961 15585 15218 14900 14628 
14355 14090 13908 13736 13624 13526 13486 13438 13437 13456 13484 13421 13313 
13363 13470 13687 13831 14100 14341 14569 14872 15157 15443 15752 16061 16321 
16617 16864 17086 17404 17933 51399 51203 51076 50890 50732 50545 50326 50096 
49795 49537 49177 48917 48832 48522 48158 47659 47157 46613 46088 45627 45174 
44708 44276 43805 43360 42883 42361 41876 41331 40821 40259 39739 39189 38620 
38011 37404 36727 35757 33927 32631 31599 30686 29937 29176 28468 27743 27065 
26453 25708 25135 24466 23746 23157 22422 21674 20975 20349 19810 19259 18698 
18245 17699 17263 16759 16299 15881 15447 15085 14731 14401 14122 13890 13692 
13521 13398 13318 13268 13261 13291 13300 13307 13328 13197 13203 13361 13450 
13658 13930 14111 14399 14637 14921 15171 15444 15736 16002 16284 16476 16741 
17285 51931 51780 51646 51498 51350 51163 50965 50749 50472 50253 50047 49770 
49460 49129 48694 48259 47679 47050 46577 46027 45591 45095 44692 44223 43754 
43272 42765 42256 41777 41306 40781 40263 39750 39199 38625 38058 37452 36814 
35781 34035 32722 31746 30881 30112 29372 28688 27924 27337 26636 25935 25304 
24653 23940 23346 22652 21926 21153 20505 19929 19351 18780 18253 17810 17293 
16790 16325 15830 15414 15008 14607 14302 13968 13719 13520 13333 13249 13161 
13137 13112 13145 13184 13199 13182 13087 13113 13179 13340 13520 13682 13931 
14166 14411 14661 14921 15161 15421 15644 15876 16112 16641 52552 52437 52314 
52170 52022 51848 51651 51475 51335 51114 50809 50460 50090 49663 49247 48740 
48172 47564 46988 46535 46037 45534 45046 44575 44128 43701 43262 42782 42297 
41828 41305 40838 40306 39799 39266 38710 38184 37574 36985 36151 34334 33057 
32057 31197 30428 29631 28928 28226 27601 26847 26226 25570 24896 24227 23580 
22900 22244 21526 20774 20136 19522 18946 18432 17937 17393 16865 16394 15909 
15439 15008 14613 14260 13955 13685 13393 13222 13110 13054 13032 13012 13062 
13091 13124 13145 13046 12981 13072 13184 13352 13580 13732 13952 14156 14417 
14602 14842 15058 15307 15537 16008 53253 53170 53061 52945 52833 52702 52636 
52436 52160 51797 51452 50985 50629 50217 49754 49202 48651 48059 47485 46899 
46385 45904 45471 45036 44605 44139 43727 43254 42811 42336 41877 41401 40929 
40430 39942 39450 38950 38417 37862 37269 36599 35020 33579 32535 31564 30720 
29959 29270 28591 27870 27187 26525 25860 25135 24559 23876 23180 22570 21888 
21100 20444 19809 19191 18658 18134 17570 17047 16556 16078 15580 15112 14708 
14327 14013 13709 13392 13164 13035 12986 13013 13022 13035 13046 13083 13096 
12979 12912 12947 13044 13217 13315 13582 13685 13928 14127 14342 14518 14734 
14947 15387 54136 54090 54106 54003 53866 53691 53443 53183 52869 52423 52084 
51574 51096 50731 50213 49715 49111 48525 47869 47274 46783 46336 45847 45436 
44994 44547 44158 43741 43286 42846 42460 42017 41594 41134 40646 40193 39734 
39226 38695 38161 37616 36986 35991 34258 33048 32056 31219 30391 29664 28920 
28239 27591 26906 26166 25504 24866 24181 23547 22893 22230 21621 20778 20099 
19525 18978 18380 17842 17324 16802 16270 15793 15323 14866 14510 14149 13830 
13502 13238 13070 13006 13006 13009 13026 13039 13055 13072 13004 12853 12887 
12945 13066 13211 13306 13548 13660 13845 14006 14204 14425 14796 55292 55166 
55069 54882 54682 54442 54156 53846 53463 53017 52602 52125 51567 51159 50643 
50110 49530 48938 48266 47728 47221 46759 46255 45843 45417 45030 44646 44226 
43840 43419 43007 42657 42260 41816 41418 40994 40534 40071 39563 39090 38601 
38056 37487 36821 35477 33846 32767 31771 30950 30145 29387 28700 27978 27275 
26581 25941 25229 24559 23896 23256 22635 22031 21200 20481 19879 19314 18692 
18182 17607 17055 16581 16077 15581 15150 14734 14384 14045 13709 13426 13204 
13095 13022 13049 13009 13026 13016 13026 12975 12841 12752 12805 12878 13015 
13111 13256 13382 13547 13677 13857 14225 56177 55972 55808 55640 55389 55104 
54798 54449 54078 53617 53112 52606 52027 51554 51028 50486 49925 49337 48688 
48145 47553 47112 46645 46230 45829 45444 45075 44738 44335 44028 43628 43293 
42950 42556 42191 41804 41337 40934 40513 40000 39521 39042 38575 38010 37423 
36646 35019 33589 32524 31580 30729 29909 29109 28426 27756 27048 26282 25662 
25006 24297 23701 23086 22491 21818 20996 20313 19696 19149 18524 17990 17462 
16945 16390 15925 15451 15040 14653 14311 14007 13670 13437 13203 13125 13066 
13042 12981 12978 12948 12923 12794 12641 12630 12711 12765 12859 12996 13136 
13190 13367 13708 56934 56668 56489 56297 56028 55733 55384 55020 54628 54158 
53616 53048 52474 51934 51426 50910 50302 49692 49080 48506 47953 47473 47047 
46689 46307 45927 45566 45269 44925 44578 44274 43978 43623 43283 42992 42615 
42228 41844 41379 40977 40569 40117 39576 39038 38580 37995 37365 36517 34710 
33409 32295 31364 30503 29689 28948 28196 27525 26872 26156 25436 24822 24175 
23544 23032 22361 21494 20838 20185 19551 18978 18438 17858 17298 16792 16276 
15801 15343 14941 14597 14230 13938 13603 13375 13147 13061 12992 12935 12893 
12851 12810 12721 12534 12456 12466 12512 12597 12656 12777 12885 13142 57576 
57276 57077 56862 56598 56259 55903 55533 55118 54600 54043 53432 52867 52311 
51802 51261 50684 50028 49452 48862 48343 47924 47474 47041 46716 46370 46051 
45779 45482 45233 44898 44628 44347 44037 43782 43437 43146 42785 42409 42031 
41615 41224 40732 40223 39731 39167 38603 37977 37341 36442 34538 33171 32045 
31089 30324 29508 28762 28026 27276 26650 26024 25346 24624 24092 23526 22906 
22192 21359 20682 20068 19449 18855 18293 17708 17166 16653 16134 15638 15231 
14842 14459 14115 13805 13485 13185 12952 12840 12781 12724 12685 12621 12546 
12387 12253 12208 12272 12266 12359 12404 12623 58162 57827 57604 57375 57066 
56711 56359 55927 55501 55003 54435 53838 53254 52638 52120 51561 50992 50370 
49785 49172 48707 48226 47860 47473 47166 46861 46536 46292 46047 45794 45538 
45321 45124 44857 44594 44326 44042 43709 43409 43010 42658 42271 41808 41390 
40909 40339 39820 39262 38642 37989 37284 36265 34334 32981 31925 30958 30097 
29282 28610 27920 27209 26480 25872 25248 24614 24100 23511 22821 21965 21259 
20554 19929 19375 18702 18121 17582 16996 16448 15962 15518 15106 14696 14328 
13927 13538 13204 12986 12785 12622 12439 12317 12311 12288 12190 12010 11906 
11876 11915 11956 12112 58639 58277 58046 57808 57498 57173 56784 56363 55911 
55405 54800 54177 53593 52948 52438 51891 51307 50744 50200 49582 49099 48630 
48248 47931 47535 47354 47044 46824 46654 46372 46217 46016 45808 45656 45433 
45213 44949 44680 44378 44105 43709 43375 42953 42537 42100 41545 40996 40483 
39907 39344 38657 37941 37218 36031 34015 32755 31729 30837 29948 29152 28417 
27751 27115 26421 25770 25198 24700 24053 23432 22626 21803 21118 20447 19762 
19200 18521 17917 17348 16803 16218 15754 15298 14838 14438 13978 13476 13194 
13001 12772 12573 12380 12223 12046 11846 11670 11546 11438 11423 11461 11543 
59125 58732 58488 58210 57904 57565 57163 56714 56262 55715 55159 54495 53918 
53304 52700 52179 51670 51049 50512 49939 49455 49044 48632 48328 48050 47749 
47589 47340 47193 47004 46888 46718 46571 46425 46240 46095 45902 45637 45419 
45163 44856 44489 44120 43659 43290 42797 42250 41724 41156 40555 39922 39301 
38577 37864 37087 35689 33799 32576 31563 30651 29784 29045 28370 27696 27046 
26409 25733 25272 24713 24037 23355 22417 21615 20929 20270 19541 18901 18277 
17650 17037 16484 15924 15451 14963 14488 13978 13479 13223 12981 12764 12551 
12345 12154 11968 11788 11602 11379 11101 10881 10740 59540 59136 58890 58605 
58259 57904 57509 57091 56579 56050 55510 54775 54191 53625 53042 52463 51948 
51387 50802 50333 49783 49399 49020 48778 48444 48260 48055 47912 47778 47636 
47550 47424 47301 47207 47095 46955 46796 46627 46439 46177 45953 45609 45262 
44881 44469 43995 43488 42963 42401 41828 41185 40555 39886 39217 38482 37753 
37003 35249 33532 32356 31326 30469 29681 28999 28232 27589 26959 26406 25865 
25290 24638 23925 22924 22104 21375 20617 19936 19276 18558 17898 17281 16676 
16080 15538 14998 14465 13790 13451 13178 12949 12705 12535 12324 12106 11901 
11709 11538 11360 11145 10571 59950 59478 59212 58923 58611 58244 57837 57392 
56911 56330 55822 55090 54446 53887 53364 52775 52207 51749 51145 50644 50186 
49797 49454 49154 48952 48696 48565 48448 48324 48226 48191 48090 48018 47908 
47860 47780 47681 47534 47339 47184 46951 46682 46413 46052 45676 45206 44744 
44198 43621 43086 42457 41822 41142 40463 39816 39047 38340 37587 36730 34750 
33253 32090 31180 30331 29552 28938 28260 27528 26944 26460 25865 25120 24410 
23493 22570 21786 21012 20274 19491 18777 18108 17443 16773 16143 15579 14961 
14355 13675 13398 13131 12924 12654 12457 12272 12076 11874 11685 11499 11331 
10766 60352 59813 59522 59227 58897 58529 58149 57700 57225 56668 56127 55410 
54751 54140 53636 53086 52525 51992 51473 51020 50550 50150 49846 49552 49369 
49220 49061 48920 48858 48813 48808 48774 48724 48677 48623 48625 48521 48440 
48326 48149 47972 47761 47496 47127 46809 46414 45961 45421 44919 44316 43701 
43083 42413 41712 41065 40325 39613 38900 38154 37421 36364 34317 32989 31948 
31028 30222 29472 28797 28158 27515 26929 26321 25669 24939 23964 22945 22115 
21278 20463 19700 18951 18218 17498 16805 16145 15495 14814 13994 13615 13313 
13071 12839 12590 12401 12194 12010 11820 11670 11489 11023 60676 60130 59850 
59519 59181 58807 58395 57983 57490 56948 56419 55708 55029 54413 53884 53340 
52813 52312 51799 51359 50931 50530 50228 49951 49806 49631 49521 49465 49453 
49421 49367 49379 49376 49409 49415 49425 49413 49318 49262 49116 48963 48819 
48581 48251 47939 47535 47090 46625 46135 45559 44955 44306 43634 42935 42262 
41541 40799 40144 39402 38719 37935 37199 35832 33928 32733 31739 30840 30044 
29328 28663 27999 27444 26821 26094 25239 24325 23252 22355 21461 20594 19817 
19022 18255 17494 16762 16037 15330 14557 13858 13505 13216 13011 12755 12538 
12337 12166 11999 11808 11624 11210 61005 60428 60131 59801 59470 59069 58666 
58239 57769 57208 56650 55967 55292 54666 54141 53564 53110 52588 52105 51669 
51248 50904 50557 50405 50233 50069 49994 49927 49917 49935 49965 49989 50073 
50124 50142 50180 50212 50259 50197 50112 49998 49846 49625 49383 49039 48692 
48262 47790 47273 46732 46151 45526 44873 44156 43411 42728 42009 41291 40609 
39906 39199 38450 37766 36979 35071 33522 32352 31393 30604 29850 29175 28521 
27875 27122 26386 25593 24605 23421 22494 21569 20663 19828 18992 18182 17380 
16593 15828 15059 14090 13722 13396 13149 12896 12667 12472 12267 12099 11932 
11756 11360 61313 60703 60389 60067 59726 59345 58926 58473 58007 57460 56871 
56236 55529 54919 54417 53854 53356 52863 52433 52002 51612 51311 51004 50760 
50616 50522 50466 50431 50452 50472 50559 50651 50708 50797 50945 51013 51097 
51175 51180 51146 51069 50921 50750 50455 50199 49809 49394 48929 48444 47865 
47287 46678 46012 45316 44590 43890 43162 42454 41755 41047 40312 39578 38928 
38239 37512 36392 34367 33058 32012 31134 30313 29536 28857 28169 27448 26637 
25764 24728 23514 22508 21545 20609 19728 18844 17987 17168 16353 15508 14564 
13893 13560 13278 13031 12806 12587 12399 12205 12037 11869 11497 61627 60957 
60658 60307 59981 59572 59186 58732 58220 57726 57124 56474 55773 55171 54666 
54124 53640 53157 52696 52287 51935 51611 51360 51106 51019 50909 50841 50838 
50898 50989 51098 51256 51406 51525 51694 51845 51949 52041 52132 52122 52081 
52003 51833 51651 51370 51013 50547 50103 49553 49015 48409 47746 47084 46417 
45708 45011 44300 43560 42848 42109 41379 40725 40008 39347 38603 37917 37174 
35351 33712 32430 31512 30673 29832 29156 28400 27627 26784 25819 24694 23461 
22403 21401 20440 19504 18608 17722 16866 15966 15021 14065 13710 13401 13140 
12905 12702 12501 12323 12151 11991 11626 61853 61201 60887 60566 60185 59795 
59431 58948 58415 57932 57339 56679 56002 55454 54918 54373 53888 53394 53009 
52611 52239 51932 51642 51531 51378 51320 51285 51336 51421 51518 51676 51835 
51991 52200 52391 52564 52711 52830 52916 52967 52982 52937 52833 52666 52432 
52154 51732 51293 50740 50150 49478 48840 48172 47461 46763 46070 45376 44616 
43851 43174 42452 41755 41048 40305 39611 38939 38267 37460 36271 34229 32902 
31834 30904 30072 29339 28525 27688 26754 25734 24442 23277 22225 21174 20216 
19260 18310 17358 16453 15456 14284 13844 13535 13226 13004 12787 12592 12421 
12260 12105 11746 62059 61444 61065 60740 60422 60023 59603 59202 58687 58177 
57585 56920 56256 55713 55145 54638 54127 53677 53258 52891 52532 52202 52032 
51867 51759 51694 51714 51791 51887 52017 52188 52424 52610 52851 53038 53247 
53370 53526 53659 53715 53762 53750 53663 53571 53389 53141 52846 52440 51986 
51365 50710 50040 49274 48528 47854 47145 46411 45668 44953 44221 43526 42742 
42081 41322 40676 39989 39254 38564 37824 36945 34822 33261 32139 31115 30253 
29488 28608 27681 26675 25559 24224 23045 21921 20882 19873 18852 17900 16937 
15952 14787 14047 13662 13356 13079 12871 12668 12507 12343 12205 11847 62296 
61695 61362 61085 60746 60428 60023 59555 59119 58613 58015 57404 56762 56220 
55639 55088 54637 54242 53838 53481 53179 52949 52784 52639 52566 52580 52633 
52739 52906 53051 53313 53549 53781 54059 54224 54491 54672 54864 55057 55235 
55348 55391 55426 55354 55266 55079 54837 54584 54224 53787 53296 52753 52050 
51296 50422 49637 48861 48046 47318 46574 45831 45090 44383 43698 42923 42222 
41522 40803 40123 39368 38604 37816 36610 34253 32777 31612 30592 29670 28694 
27649 26497 25212 23741 22487 21354 20285 19186 18097 17035 15915 14511 13995 
13610 13307 13076 12862 12683 12531 12411 12099 
